<svg id="Layer_1" data-name="Layer 1" xmlns="http://www.w3.org/2000/svg" viewBox="0 0 40 40"><defs><style>.cls-1{fill:#fdfdfe;}</style></defs><title>foot_icon01</title><path id="패스_89" data-name="패스 89" class="cls-1" d="M31.94,23.1V33.54a1.34,1.34,0,0,1-.36,1,1.22,1.22,0,0,1-.92.38h-8V26.6h-5.3v8.34h-8a1.23,1.23,0,0,1-.91-.39,1.33,1.33,0,0,1-.36-.95V23L20,12.72,31.94,23Zm4.69-1.47-1.28,1.59a1,1,0,0,1-.42.26h-.06a.9.9,0,0,1-.43-.13L20,10.75,5.65,23.29a.5.5,0,0,1-.49.13.67.67,0,0,1-.43-.26L3.39,21.63a.51.51,0,0,1-.12-.5.42.42,0,0,1,.25-.44l14.9-13a2.46,2.46,0,0,1,3.17,0l5.05,4.45V7.82a.77.77,0,0,1,.18-.5.65.65,0,0,1,.49-.19h4a.65.65,0,0,1,.49.19.72.72,0,0,1,.18.5v8.85l4.57,3.94a.67.67,0,0,1,.24.45,1.81,1.81,0,0,1-.12.57Z"/></svg>