<svg id="Layer_1" data-name="Layer 1" xmlns="http://www.w3.org/2000/svg" viewBox="0 0 40 40"><defs><style>.cls-1{fill:#fdfdfe;fill-rule:evenodd;}</style></defs><title>foot_icon04</title><g id="그룹_181" data-name="그룹 181"><g id="그룹_174" data-name="그룹 174"><path id="패스_90" data-name="패스 90" class="cls-1" d="M8.16,26.11a.8.8,0,0,1,.6-.27h8a.79.79,0,0,1,.79.8,3.18,3.18,0,0,0,6.36,0,.8.8,0,0,1,.8-.8h8a.8.8,0,0,1,.8.8v.1l-.62,5a2.39,2.39,0,0,1-2.37,2.09H11a2.39,2.39,0,0,1-2.37-2.09l-.62-5a.76.76,0,0,1,.2-.62Z"/><g id="그룹_172" data-name="그룹 172"><path id="패스_91" data-name="패스 91" class="cls-1" d="M14,7.34a2.39,2.39,0,0,1,1.86-.9h9.61c.72,0,1.4.33,1.86,1.55l5.88,7.36c.25-.31.18.19-.18.45A.8.8,0,0,1,32,15.68L26.13,8.33a.79.79,0,0,0-.62-.3H15.9a.79.79,0,0,0-.62.3L9.4,15.69a.8.8,0,1,1-1.29-.93l.05-.06Z"/><path id="패스_92" data-name="패스 92" class="cls-1" d="M8.19,15.32a.78.78,0,0,1,.59-.27h8a.8.8,0,0,1,.8.8,3.18,3.18,0,0,0,6.35,0,.8.8,0,0,1,.8-.8h8a.8.8,0,0,1,.79.8V16l-.62,5A2.38,2.38,0,0,1,30.43,23H11a2.39,2.39,0,0,1-2.37-2.09L8,16A.77.77,0,0,1,8.19,15.32Z"/></g></g></g></svg>