<svg id="Layer_1" data-name="Layer 1" xmlns="http://www.w3.org/2000/svg" viewBox="0 0 40 40"><defs><style>.cls-1{fill:#fdfdfe;}</style></defs><title>foot_icon03</title><path id="패스_93" data-name="패스 93" class="cls-1" d="M35.51,10.44v3.24H12.8V10.44ZM12.8,21.75H35.51V18.51H12.8Zm0,8.07H35.51V26.58H12.8ZM6.58,10.44a1.67,1.67,0,0,0-.81,3.24,1.59,1.59,0,0,0,.81,0,1.67,1.67,0,1,0,.81-3.24A1.84,1.84,0,0,0,6.58,10.44Zm0,8.07a1.67,1.67,0,0,0-.81,3.24,1.59,1.59,0,0,0,.81,0,1.67,1.67,0,1,0,.81-3.24A1.59,1.59,0,0,0,6.58,18.51Zm0,8.07A1.89,1.89,0,0,0,4.51,28.2a1.91,1.91,0,0,0,2.07,1.62A1.89,1.89,0,0,0,8.66,28.2a1.91,1.91,0,0,0-2.08-1.62Z"/></svg>