<svg id="Layer_1" data-name="Layer 1" xmlns="http://www.w3.org/2000/svg" viewBox="0 0 40 40"><defs><style>.cls-1{fill:#fdfdfe;fill-rule:evenodd;}</style></defs><title>foot_icon05</title><path id="패스_94" data-name="패스 94" class="cls-1" d="M34.16,19.24c0,7.33-6.34,13.28-14.16,13.28a15,15,0,0,1-4.16-.59,24.32,24.32,0,0,1-7.4,2.35.47.47,0,0,1-.52-.44.44.44,0,0,1,0-.25A20.89,20.89,0,0,0,9.32,28a12.78,12.78,0,0,1-3.48-8.73C5.84,11.91,12.18,6,20,6S34.16,11.91,34.16,19.24Zm-19.47,0a1.83,1.83,0,0,1-1.77,1.89,1.89,1.89,0,0,1-1.76-2,1.91,1.91,0,0,1,1.76-1.76A1.85,1.85,0,0,1,14.69,19.24Zm7.08,0A1.77,1.77,0,1,1,20,17.34,1.85,1.85,0,0,1,21.77,19.24Zm5.31,1.89a1.9,1.9,0,1,0-1.76-2,.66.66,0,0,0,0,.14A1.83,1.83,0,0,0,27.08,21.13Z"/></svg>