<svg id="Layer_1" data-name="Layer 1" xmlns="http://www.w3.org/2000/svg" viewBox="0 0 250 250"><defs><style>.cls-1{fill:#fff;}.cls-2{fill:none;stroke:#fff;stroke-miterlimit:10;stroke-width:9px;}</style></defs><title>main_s2_icon02</title><path class="cls-1" d="M19.86,194.73V25.53a4.86,4.86,0,0,1,4.86-4.86h90.66a4.86,4.86,0,0,1,4.86,4.86v75.38a4.86,4.86,0,0,0,4.86,4.86h0a4.87,4.87,0,0,0,4.86-4.86V15.81A4.86,4.86,0,0,0,125.1,11H15a4.86,4.86,0,0,0-4.86,4.86V204.45A4.86,4.86,0,0,0,15,209.31H93.37a4.85,4.85,0,0,0,4.86-4.85h0a4.85,4.85,0,0,0-4.86-4.87H24.72A4.86,4.86,0,0,1,19.86,194.73Z"/><rect class="cls-1" x="140.64" y="144.12" width="16.42" height="11.78"/><rect class="cls-1" x="132.54" y="136.03" width="32.62" height="27.98" rx="8.1"/><rect class="cls-1" x="139.96" y="184.35" width="16.42" height="11.78"/><rect class="cls-1" x="131.86" y="176.25" width="32.63" height="27.98" rx="8.1"/><rect class="cls-1" x="186.48" y="184.35" width="16.42" height="11.78"/><rect class="cls-1" x="178.38" y="176.25" width="32.63" height="27.98" rx="8.1"/><rect class="cls-1" x="40.38" y="39.77" width="16.42" height="11.78"/><rect class="cls-1" x="32.28" y="31.67" width="32.63" height="27.98" rx="8.1"/><rect class="cls-1" x="39.7" y="80" width="16.42" height="11.78"/><rect class="cls-1" x="31.6" y="71.9" width="32.63" height="27.98" rx="8.1"/><rect class="cls-1" x="86.22" y="80" width="16.42" height="11.78"/><rect class="cls-1" x="78.12" y="71.9" width="32.62" height="27.98" rx="8.1"/><rect class="cls-1" x="86.43" y="39.77" width="16.42" height="11.78"/><rect class="cls-1" x="78.33" y="31.67" width="32.63" height="27.98" rx="8.1"/><path class="cls-2" d="M232.48,234.19H111.86a8.38,8.38,0,0,1-8.38-8.38V119.29a8.38,8.38,0,0,1,8.38-8.38H232.48a8.38,8.38,0,0,1,8.38,8.38V225.81A8.38,8.38,0,0,1,232.48,234.19Z"/><rect class="cls-1" x="186.69" y="144.12" width="16.42" height="11.78"/><rect class="cls-1" x="178.59" y="136.03" width="32.62" height="27.98" rx="8.1"/></svg>